<svg xmlns="http://www.w3.org/2000/svg" xmlns:xlink="http://www.w3.org/1999/xlink" viewBox="0 0 293.41 368.35">
  <defs>
    <style>
      .cls-1, .cls-18, .cls-23 {
        fill: none;
      }

      .cls-2 {
        fill: url(#linear-gradient);
      }

      .cls-3 {
        font-size: 31.83px;
        font-family: Muli-Black, Muli Black;
        font-weight: 800;
      }

      .cls-10, .cls-24, .cls-3 {
        fill: #fff;
      }

      .cls-4 {
        letter-spacing: -0.01em;
      }

      .cls-5 {
        letter-spacing: -0.01em;
      }

      .cls-6 {
        letter-spacing: -0.01em;
      }

      .cls-7 {
        letter-spacing: -0.01em;
      }

      .cls-8 {
        clip-path: url(#clip-path);
      }

      .cls-9 {
        opacity: 0.18;
      }

      .cls-11 {
        clip-path: url(#clip-path-2);
      }

      .cls-12 {
        fill: #999;
      }

      .cls-13 {
        fill: gray;
        opacity: 0.32;
      }

      .cls-13, .cls-23, .cls-24 {
        isolation: isolate;
      }

      .cls-14 {
        fill: #f7b314;
      }

      .cls-15 {
        clip-path: url(#clip-path-3);
      }

      .cls-16 {
        fill: #f49f1c;
      }

      .cls-17 {
        fill: #414042;
      }

      .cls-18 {
        stroke: #666;
        stroke-linecap: round;
        stroke-linejoin: round;
        stroke-width: 4px;
      }

      .cls-19 {
        fill: #19a5ca;
      }

      .cls-20 {
        fill: #219cc5;
      }

      .cls-21 {
        clip-path: url(#clip-path-4);
      }

      .cls-22 {
        fill: #36b0ce;
      }

      .cls-23 {
        stroke: #fff;
        stroke-miterlimit: 10;
        stroke-width: 5px;
      }

      .cls-23, .cls-24 {
        opacity: 0.44;
      }
    </style>
    <linearGradient id="linear-gradient" x1="22.46" y1="183.46" x2="271.49" y2="183.46" gradientUnits="userSpaceOnUse">
      <stop offset="0" stop-color="#fff42f"/>
      <stop offset="0.64" stop-color="#f5b330"/>
    </linearGradient>
    <clipPath id="clip-path">
      <path class="cls-1" d="M105.69,4.64C63.31,15.37,22.46,25.58,22.46,100.13s94,27.58,85.27,178.73c-3,52,1.54,82.72,27.07,86.81,76.64,12.26,135.83-67.39,112.34-159.32-11.75-46,59.06-77.11,1.53-149.62C214.14,13.21,166.2-10.67,105.69,4.64Z"/>
    </clipPath>
    <clipPath id="clip-path-2">
      <path class="cls-1" d="M105.69,4.64C63.31,15.37,22.46,25.58,22.46,100.13s30.64,98.56,85.27,178.73c29.34,43,1.54,82.72,27.07,86.81,76.64,12.26,135.83-67.39,112.34-159.32-11.75-46,59.06-77.11,1.53-149.62C214.14,13.21,166.2-10.67,105.69,4.64Z"/>
    </clipPath>
    <clipPath id="clip-path-3">
      <path id="SVGID" class="cls-1" d="M177.7,170.28a10.18,10.18,0,1,0,7.21,12.46v-.05a10.23,10.23,0,0,0-7.22-12.42"/>
    </clipPath>
    <clipPath id="clip-path-4">
      <path id="SVGID-2" data-name="SVGID" class="cls-1" d="M181.32,288a4.38,4.38,0,0,0-4,4.67l5,65.65a4.4,4.4,0,0,0,4.66,4l3.11-.24a4.26,4.26,0,0,0,4-4.48v0l-5-65.79a4.4,4.4,0,0,0-4.66-4Z"/>
    </clipPath>
  </defs>
  <title>diaby-msg</title>
  <g id="Layer_2" data-name="Layer 2">
    <g id="Layer_1-2" data-name="Layer 1">
      <g>
        <path class="cls-2" d="M105.69,4.64C63.31,15.37,22.46,25.58,22.46,100.13s94,27.58,85.27,178.73c-3,52,1.54,82.72,27.07,86.81,76.64,12.26,135.83-67.39,112.34-159.32-11.75-46,59.06-77.11,1.53-149.62C214.14,13.21,166.2-10.67,105.69,4.64Z"/>
        <text class="cls-3" transform="translate(48.98 63.13)">Diab<tspan class="cls-4" x="75.06" y="0">e</tspan><tspan x="92.29" y="0">tips</tspan><tspan x="0" y="38.2">accompagne </tspan><tspan class="cls-5" x="0" y="76.4">v</tspan><tspan class="cls-6" x="17.45" y="76.4">o</tspan><tspan x="36.93" y="76.4">t</tspan><tspan class="cls-7" x="50.17" y="76.4">r</tspan><tspan x="63.54" y="76.4">e diab</tspan><tspan class="cls-4" x="161.04" y="76.4">è</tspan><tspan x="178.27" y="76.4">te</tspan></text>
        <g class="cls-8">
          <g id="Icons_Container" data-name="Icons Container">
            <g id="Icons" class="cls-9">
              <g id="layer1">
                <path id="path1577" class="cls-10" d="M216.91,250.54l7.05,9.61,3.88,5.29a16.16,16.16,0,0,1,13.95-11l-.09-4.65a4.61,4.61,0,1,1,2.3,0l.08,4.65a16.08,16.08,0,0,1,15.07,15.75c0,.37,0,.85,0,1.22a21,21,0,0,0-27-32.08h0Zm15.94,12.15a3.17,3.17,0,0,0-1.45,2.82,3.34,3.34,0,0,0,3.4,3.24h0a3.34,3.34,0,0,0,3.24-3.39h0a3.34,3.34,0,0,0-3.4-3.24h0a3,3,0,0,0-1.79.57Zm16.58-.33a3.16,3.16,0,0,0-1.45,2.82,3.34,3.34,0,0,0,3.39,3.24h0a3.35,3.35,0,0,0,3.25-3.4h0a3.35,3.35,0,0,0-3.4-3.24h0a3,3,0,0,0-1.79.58Z"/>
              </g>
              <g id="layer1-2">
                <path id="path1577-2" class="cls-10" d="M84.51,150.09l6.12,12L94,168.67a18.23,18.23,0,0,1,17.52-9.7l.75-5.2a5.19,5.19,0,1,1,2.56.4l-.74,5.2A18.15,18.15,0,0,1,128,179.64c-.07.42-.18,1-.25,1.36a23.7,23.7,0,0,0-24.22-40.62h0Zm15.56,16.43A3.56,3.56,0,0,0,98,169.39a3.77,3.77,0,0,0,3.2,4.23h0a3.76,3.76,0,0,0,4.22-3.2h0a3.75,3.75,0,0,0-3.19-4.22h0a3.42,3.42,0,0,0-2.11.32Zm18.54,2.63a3.57,3.57,0,0,0-2.12,2.88,3.75,3.75,0,0,0,3.19,4.22h0a3.76,3.76,0,0,0,4.23-3.19h0a3.78,3.78,0,0,0-3.2-4.23h0a3.39,3.39,0,0,0-2.1.32Z"/>
              </g>
              <g id="layer1-3">
                <path id="path1577-3" class="cls-10" d="M217.41,97.09l-6,25.47-3.29,14a35.43,35.43,0,0,1,38.18,7.64l7.64-6.77a10.1,10.1,0,1,1,3.3,3.8L249.6,148a35.29,35.29,0,0,1-4.81,47.59l-2.08,1.69a46.07,46.07,0,0,0,15.23-90.66l-.1,0h0ZM219.84,141a6.91,6.91,0,0,0-6.76,1.6,7.31,7.31,0,0,0-.57,10.28h0a7.31,7.31,0,0,0,10.28.57h0a7.31,7.31,0,0,0,.57-10.28h0a6.64,6.64,0,0,0-3.52-2.17ZM244,168.2a6.91,6.91,0,0,0-6.76,1.6,7.32,7.32,0,0,0-.58,10.28h0a7.32,7.32,0,0,0,10.28.57h0a7.32,7.32,0,0,0,.58-10.28h0A6.68,6.68,0,0,0,244,168.2Z"/>
              </g>
              <g id="layer1-4">
                <path id="path1577-4" class="cls-10" d="M104.73,55.36l18.61,7.9,10.23,4.35A27.37,27.37,0,0,1,144.4,39.54l-4.15-6.71a7.8,7.8,0,1,1,3.32-2l4.16,6.7a27.25,27.25,0,0,1,35.59,9.91c.32.55.71,1.26,1,1.81a35.59,35.59,0,0,0-67.06-23.42h0Zm33.76,3.91a5.34,5.34,0,0,0,.33,5.35,5.66,5.66,0,0,0,7.75,1.79h0a5.66,5.66,0,0,0,1.79-7.76h0a5.66,5.66,0,0,0-7.76-1.78h0a5.09,5.09,0,0,0-2.11,2.4Zm23.87-14.84a5.34,5.34,0,0,0,.34,5.35,5.65,5.65,0,0,0,7.75,1.79h0a5.66,5.66,0,0,0,1.78-7.76h0A5.66,5.66,0,0,0,164.48,42h0a5.16,5.16,0,0,0-2.12,2.4Z"/>
              </g>
              <g id="layer1-5">
                <path id="path1577-5" class="cls-10" d="M109.22,343.21l9.69,7,5.34,3.84a16.17,16.17,0,0,1,9.9-14.77l-1.53-4.4a4.61,4.61,0,1,1,4-6.12,4.67,4.67,0,0,1-1.85,5.39l1.52,4.4a16.12,16.12,0,0,1,19.23,10.35c.11.36.24.82.35,1.18a21,21,0,0,0-35.61-22.24h0Zm18.95,6.65a3.19,3.19,0,0,0-.51,3.14,3.35,3.35,0,0,0,4.24,2h0a3.34,3.34,0,0,0,2-4.23h0a3.34,3.34,0,0,0-4.24-2h0A3,3,0,0,0,128.17,349.86Zm15.7-5.44a3.14,3.14,0,0,0-.51,3.13,3.34,3.34,0,0,0,4.24,2h0a3.35,3.35,0,0,0,2-4.24h0a3.34,3.34,0,0,0-4.23-2h0A3.05,3.05,0,0,0,143.87,344.42Z"/>
              </g>
              <g id="layer1-6">
                <path id="path1577-6" class="cls-10" d="M171.58,210.62l-9.3,7.46-5.11,4.11a16.18,16.18,0,0,1,11.57,13.46l4.64-.29a4.61,4.61,0,1,1,.12,2.29l-4.64.29a16.08,16.08,0,0,1-15.08,15.74c-.37,0-.85,0-1.22,0a21,21,0,0,0,30.87-28.33h0Zm-11.45,16.45a3.17,3.17,0,0,0-2.87-1.32,3.33,3.33,0,0,0-3.09,3.53h0a3.32,3.32,0,0,0,3.53,3.09h0a3.33,3.33,0,0,0,3.09-3.53h0A3.11,3.11,0,0,0,160.13,227.07Zm1.06,16.55a3.17,3.17,0,0,0-2.88-1.32,3.33,3.33,0,0,0-3.09,3.53h0a3.33,3.33,0,0,0,3.53,3.09h0a3.33,3.33,0,0,0,3.09-3.53h0a3,3,0,0,0-.65-1.77Z"/>
              </g>
              <g id="layer1-3-2" data-name="layer1-3">
                <path id="path1577-3-2" data-name="path1577-3" class="cls-10" d="M0,95.09l12.09,12.5,6.65,6.88a23.58,23.58,0,0,1,18-18.62l-1-6.7A6.71,6.71,0,1,1,39,88.67l1,6.7a23.46,23.46,0,0,1,24.89,19.78c.07.54.13,1.23.2,1.77A30.62,30.62,0,0,0,19.89,75.85l-.05.05h0ZM25.44,109.5a4.62,4.62,0,0,0-1.54,4.36,4.87,4.87,0,0,0,5.55,4h0a4.87,4.87,0,0,0,4-5.55h0a4.86,4.86,0,0,0-5.54-4h0a4.45,4.45,0,0,0-2.48,1.19Zm23.89-3.76a4.63,4.63,0,0,0-1.54,4.36,4.87,4.87,0,0,0,5.55,4h0a4.86,4.86,0,0,0,4-5.54h0a4.86,4.86,0,0,0-5.54-4h0a4.37,4.37,0,0,0-2.48,1.18Z"/>
              </g>
            </g>
          </g>
        </g>
        <g class="cls-11">
          <g id="Diaby">
            <g id="Groupe_383" data-name="Groupe 383">
              <path id="Tracé_2344" data-name="Tracé 2344" class="cls-12" d="M152,284a10.28,10.28,0,0,1-.62,1.4,9.19,9.19,0,0,1-.52.85,9.3,9.3,0,0,1-5.72,3.82,11.93,11.93,0,0,1-9.38-1.89L134,286.86l-7.5-5.29c-3.22-2.3-6.28-4.63-9.13-6.93h0c-7.77-6.26-14-12.34-17.93-17.33-.54-.69-1-1.35-1.48-2s-1-1.59-1.51-2.42c-1.45-2.65-1.82-4.73-.92-6,2-2.82,9.72-1,20,4,.92.46,1.85.92,2.81,1.43h0c1.27.66,2.57,1.38,3.9,2.12q2.53,1.44,5.2,3.08c3.53,2.16,7.18,4.59,10.86,7.22l7.63,5.38,1.67,1.17A11.24,11.24,0,0,1,152,284Z"/>
              <path id="Tracé_2345" data-name="Tracé 2345" class="cls-13" d="M152,284a10.28,10.28,0,0,1-.62,1.4,9.19,9.19,0,0,1-.52.85,9.3,9.3,0,0,1-5.72,3.82,11.93,11.93,0,0,1-9.38-1.89L134,286.86l-7.5-5.29c-3.22-2.3-6.28-4.63-9.13-6.93h0c-7.77-6.26-14-12.34-17.93-17.33-.54-.69-1-1.35-1.48-2,2.75-1.31,7.94,4.77,7.94,4.77s14.67,8.29,15.26-.54a13.94,13.94,0,0,1,1.12-5.09q2.55,1.44,5.2,3.08c3.53,2.16,7.18,4.58,10.87,7.22l7.63,5.38,1.67,1.17A11.25,11.25,0,0,1,152,284Z"/>
            </g>
            <g id="Groupe_384" data-name="Groupe 384">
              <path id="Tracé_2346" data-name="Tracé 2346" class="cls-12" d="M238.32,310.2c-.89,2-1.84,4-2.84,5.95-1.16-1.52-2.35-3.18-3.56-5a177.23,177.23,0,0,1-12-20.69l-.2-.41-3.4-7-1.4-2.85,0-.07a11.92,11.92,0,0,1-1.18-6.65,9.68,9.68,0,0,1,5.42-7.87,9.86,9.86,0,0,1,5.27-.85h0a11,11,0,0,1,5.18,2,11.9,11.9,0,0,1,3.72,4.4l5,10.22c2.26,4.55,4.26,9,6,13.25a158.15,158.15,0,0,1-6,15.45Z"/>
              <path id="Tracé_2347" data-name="Tracé 2347" class="cls-12" d="M236.76,317.79c.76-1.1,1.52-2.2,2.29-3.34C238.29,315.58,237.52,316.7,236.76,317.79Z"/>
              <path id="Tracé_2348" data-name="Tracé 2348" class="cls-13" d="M238.32,310.2c-.89,2-1.84,4-2.84,5.95-1.16-1.52-2.35-3.18-3.56-5a177.23,177.23,0,0,1-12-20.69l-.2-.41c1.05-3.27,3.15-5.21,7.13-3.16a14.31,14.31,0,0,1,5.32,5.36h0c3.11,5,5,12.07,6.11,17.9Z"/>
              <path id="Tracé_2349" data-name="Tracé 2349" class="cls-13" d="M239.05,314.45c-.76,1.13-1.52,2.25-2.29,3.34C237.52,316.69,238.28,315.59,239.05,314.45Z"/>
            </g>
            <g id="Groupe_396" data-name="Groupe 396">
              <g id="Groupe_391" data-name="Groupe 391">
                <path id="Tracé_2350" data-name="Tracé 2350" class="cls-12" d="M179.42,202.18l-3.07.23-1.82.14-1.19-15.68-.19-2.55L178,184Z"/>
                <path id="Tracé_2351" data-name="Tracé 2351" class="cls-13" d="M176.35,202.41l-1.82.14-1.19-15.68C175.47,189.8,176.14,197.45,176.35,202.41Z"/>
                <g id="Groupe_390" data-name="Groupe 390">
                  <path id="Tracé_2352" data-name="Tracé 2352" class="cls-14" d="M172.51,189.94a10.18,10.18,0,1,1,12.43-7.26v0a10.19,10.19,0,0,1-12.42,7.22Z"/>
                  <g id="Groupe_388" data-name="Groupe 388">
                    <g id="Groupe_387" data-name="Groupe 387">
                      <g class="cls-15">
                        <g id="Groupe_386" data-name="Groupe 386">
                          <g id="Groupe_385" data-name="Groupe 385">
                            <path id="Tracé_2353" data-name="Tracé 2353" class="cls-16" d="M168.92,192.71a10.2,10.2,0,1,1,12.44-7.31v0A10.14,10.14,0,0,1,169,192.73l-.07,0h0"/>
                          </g>
                        </g>
                      </g>
                    </g>
                  </g>
                  <g id="Groupe_389" data-name="Groupe 389">
                    <ellipse id="Ellipse_174" data-name="Ellipse 174" class="cls-1" cx="175.12" cy="180.08" rx="10.2" ry="10.16" transform="translate(-43.76 303.32) rotate(-75.18)"/>
                  </g>
                </g>
              </g>
              <g id="Groupe_392" data-name="Groupe 392">
                <path id="Tracé_2354" data-name="Tracé 2354" class="cls-12" d="M217.71,259.47l-73.18,5.58h-.08a12.21,12.21,0,0,1-13-11.26v-.14a49,49,0,0,1,41.42-52.07l7-.62A49.06,49.06,0,0,1,229,246.27v.23q0,.39,0,.78A12.08,12.08,0,0,1,217.71,259.47Z"/>
              </g>
              <g id="Groupe_393" data-name="Groupe 393">
                <path id="Tracé_2355" data-name="Tracé 2355" class="cls-10" d="M154.66,241.69a25.26,25.26,0,0,1,7.51.5,8.52,8.52,0,0,0,1.28-5.18,9.13,9.13,0,0,0-18.19,1.38,8.56,8.56,0,0,0,2.05,4.93A25.35,25.35,0,0,1,154.66,241.69Z"/>
                <path id="Tracé_2356" data-name="Tracé 2356" class="cls-17" d="M158.86,236.79a4.58,4.58,0,1,1-5-4.18h0A4.61,4.61,0,0,1,158.86,236.79Z"/>
                <circle id="Ellipse_175" data-name="Ellipse 175" class="cls-10" cx="150.86" cy="234.15" r="1.69"/>
              </g>
              <g id="Groupe_394" data-name="Groupe 394">
                <path id="Tracé_2357" data-name="Tracé 2357" class="cls-10" d="M205.31,238.35a28.14,28.14,0,0,1,8.29.56,9.44,9.44,0,0,0,1.41-5.72,10.07,10.07,0,0,0-20.07,1.53,9.41,9.41,0,0,0,2.26,5.44A28.22,28.22,0,0,1,205.31,238.35Z"/>
                <path id="Tracé_2358" data-name="Tracé 2358" class="cls-17" d="M209.79,233a4.9,4.9,0,1,1-5.29-4.47h0A4.92,4.92,0,0,1,209.79,233Z"/>
                <circle id="Ellipse_176" data-name="Ellipse 176" class="cls-10" cx="208.68" cy="229.91" r="1.87"/>
              </g>
              <g id="Groupe_395" data-name="Groupe 395">
                <path id="Tracé_2359" data-name="Tracé 2359" class="cls-18" d="M174.34,252.52s11.26,1.07,14-5.81"/>
                <path id="Tracé_2360" data-name="Tracé 2360" class="cls-18" d="M186.83,244.77s1.24,2.83,4,2.37"/>
              </g>
              <path id="Tracé_2361" data-name="Tracé 2361" class="cls-13" d="M217.71,259.47l-73.18,5.58h-.08a12.21,12.21,0,0,1-13-11.26v-.14a48.74,48.74,0,0,1,10.52-34.16c-4,8.58-7.36,20.31-5.58,33.42,1.6,11.81,82.1,4.52,92.66-5.63A12.1,12.1,0,0,1,217.71,259.47Z"/>
            </g>
            <g id="Groupe_420" data-name="Groupe 420">
              <g id="Groupe_397" data-name="Groupe 397">
                <path id="Tracé_2362" data-name="Tracé 2362" class="cls-12" d="M230.56,325c-7.39,12.1-17.19,23.4-30.11,31.43a75.2,75.2,0,0,1-7.15,3.93h0c-1.33.64-2.68,1.25-4.07,1.82a83.45,83.45,0,0,1-30.85,6.18c-10.86-15.76-19.29-39.33-22.9-66.62-.28-2.06-.52-4.14-.74-6.25h-.14l-.3-4-.36-4.67-.45-6,0-.21a.66.66,0,0,1,0-.14c0-.12,0-.24,0-.36a10.85,10.85,0,0,1,.13-1.89c0-.16.06-.32.1-.47a3.31,3.31,0,0,1,.12-.45c0-.14.07-.27.11-.4l0-.09a7.71,7.71,0,0,1,.33-.84c.09-.2.19-.4.29-.6l.09-.17,0,0a1.13,1.13,0,0,1,.12-.21,2,2,0,0,1,.12-.19h0a7.7,7.7,0,0,1,.63-.87,9,9,0,0,1,1.13-1.18,7.73,7.73,0,0,1,.85-.66c.15-.11.31-.2.46-.3a4.16,4.16,0,0,1,.42-.23.21.21,0,0,1,.1-.06,4.66,4.66,0,0,1,.45-.22,3.38,3.38,0,0,1,.52-.22c.16-.07.33-.12.49-.18a9.61,9.61,0,0,1,2.26-.43l3.69-.27,74.92-5.71a9.53,9.53,0,0,1,3.6.42h0l.51.18.18.07.53.24h0l.51.27.17.1c.15.1.31.18.46.3h0c.17.13.35.25.52.39s.35.28.51.43l0,0c.15.14.29.27.42.41l0,0c.16.17.31.32.46.5l.38.51s.06.06.06.08a4.81,4.81,0,0,1,.37.55l0,.06c.11.18.21.37.31.55a.26.26,0,0,0,0,.09c.09.21.19.41.27.62s.18.43.25.65a.19.19,0,0,1,0,.07,5,5,0,0,1,.16.55h0l.06.23c0,.16.07.33.1.5a.13.13,0,0,1,0,.06,1.91,1.91,0,0,1,0,.21c0,.21.06.42.07.63l0,.55.92,12,.17,2.29h-.13c.07,1.41.12,2.83.16,4.22h0c.19,6.47.09,12.79-.29,18.9C231.62,315.92,231.18,320.53,230.56,325Z"/>
                <path id="Tracé_2363" data-name="Tracé 2363" class="cls-13" d="M200.45,356.41a75.2,75.2,0,0,1-7.15,3.93h0c-1.33.64-2.68,1.25-4.07,1.82a83.41,83.41,0,0,1-30.85,6.18c-10.86-15.76-19.29-39.33-22.9-66.62.85.27,1.77.62,2.76,1,15.18,6.48,12.39,38.27,43.61,49.39h0a59.47,59.47,0,0,0,6.69,1.93q2.82.64,5.37,1.14h0C196.25,355.71,198.42,356.09,200.45,356.41Z"/>
                <path id="Tracé_2364" data-name="Tracé 2364" class="cls-13" d="M228.37,267.28a168,168,0,0,1-45.78,14.63c-21.8,3.67-37.63,2.4-49.1-1.08l0-.21a.66.66,0,0,1,0-.14c0-.12,0-.24,0-.36a9.2,9.2,0,0,1,.13-1.89c0-.16.06-.32.09-.47s.07-.31.12-.46.07-.26.11-.39l0-.09c.1-.28.21-.57.33-.84a9.06,9.06,0,0,1,.66-1.23c.2-.3.41-.6.63-.88a10.41,10.41,0,0,1,1.13-1.17,9.42,9.42,0,0,1,.86-.67l.45-.29a4.19,4.19,0,0,1,.42-.24l.11-.05a3.17,3.17,0,0,1,.45-.23c.16-.07.33-.15.51-.21a4.24,4.24,0,0,1,.5-.18,9.12,9.12,0,0,1,2.26-.43l3.68-.28,74.92-5.7a9.6,9.6,0,0,1,3.61.42h0l.51.19.18.06.54.24h0l.51.28a1,1,0,0,1,.17.1,4.43,4.43,0,0,1,.46.29l0,0,.52.38c.18.14.34.28.51.44,0,0,0,0,0,0Z"/>
              </g>
              <g id="Groupe_414" data-name="Groupe 414">
                <g id="Groupe_402" data-name="Groupe 402">
                  <path class="cls-14" d="M211.8,312.26a4.17,4.17,0,0,1-1.46.41,4.1,4.1,0,0,1-4.42-3.75,4,4,0,0,1,.31-1.92,4.11,4.11,0,0,1,3.44-2.5,4.21,4.21,0,0,1,.71,0,4.09,4.09,0,0,1,1.42,7.75Z"/>
                  <g id="Groupe_399" data-name="Groupe 399">
                    <g id="Groupe_398" data-name="Groupe 398">
                      <path class="cls-16" d="M212.13,311a4.28,4.28,0,0,1-.33,1.24,4.17,4.17,0,0,1-1.46.41,4.1,4.1,0,0,1-4.42-3.75,4,4,0,0,1,.31-1.92,4.18,4.18,0,0,1,2-.44,4.09,4.09,0,0,1,3.92,4.23C212.14,310.87,212.13,310.94,212.13,311Z"/>
                    </g>
                  </g>
                </g>
                <g id="Groupe_407" data-name="Groupe 407">
                  <path class="cls-14" d="M210.9,298.94a4,4,0,0,1-1.57.45,4.08,4.08,0,0,1-4.38-3.75,4,4,0,0,1,.26-1.76,4.07,4.07,0,1,1,5.69,5.06Z"/>
                  <g id="Groupe_404" data-name="Groupe 404">
                    <g id="Groupe_403" data-name="Groupe 403">
                      <path class="cls-16" d="M211.15,297.87a3.88,3.88,0,0,1-.25,1.07,4,4,0,0,1-1.57.45,4.08,4.08,0,0,1-4.38-3.75,1.67,1.67,0,0,1,2.13-2.23,4.08,4.08,0,0,1,4.09,4.06A2.61,2.61,0,0,1,211.15,297.87Z"/>
                    </g>
                  </g>
                </g>
                <g id="Groupe_413" data-name="Groupe 413">
                  <g id="Groupe_408" data-name="Groupe 408">
                    <path class="cls-14" d="M210.23,285.79a4,4,0,0,1-1.89.64,4.06,4.06,0,0,1-4.37-3.75,3.85,3.85,0,0,1,.15-1.44,4.05,4.05,0,0,1,3.6-2.93h0a4.07,4.07,0,0,1,2.51,7.48Z"/>
                  </g>
                  <g id="Groupe_410" data-name="Groupe 410">
                    <g id="Groupe_409" data-name="Groupe 409">
                      <path class="cls-16" d="M210.38,285.05a3.74,3.74,0,0,1-.15.74,4,4,0,0,1-1.89.64,4.06,4.06,0,0,1-4.37-3.75,3.85,3.85,0,0,1,.15-1.44,4.17,4.17,0,0,1,1.89-.64,4.06,4.06,0,0,1,4.37,4.45Z"/>
                    </g>
                  </g>
                </g>
              </g>
              <g id="Groupe_419" data-name="Groupe 419">
                <path class="cls-19" d="M193.3,360.34h0c-1.33.64-2.68,1.25-4.07,1.82l-1.51.12-.74,0a4.34,4.34,0,0,1-4.66-4l-.47-6.18-4.53-59.47a4.11,4.11,0,0,1,.16-1.52,4.4,4.4,0,0,1,3.84-3.15l3.11-.23a4.37,4.37,0,0,1,4.06,2.12,3.45,3.45,0,0,1,.24.47,4,4,0,0,1,.36,1.41l4.83,63.45.19,2.34A4.33,4.33,0,0,1,193.3,360.34Z"/>
                <path class="cls-20" d="M193.3,360.34h0c-1.33.64-2.68,1.25-4.07,1.82l-1.51.12a4.34,4.34,0,0,1-.6-1.89l-5-65.65a4.4,4.4,0,0,1,4-4.66l2.37-.18a3.45,3.45,0,0,1,.24.47,4,4,0,0,1,.36,1.41l4.83,63.45.19,2.34A4.33,4.33,0,0,1,193.3,360.34Z"/>
                <path id="Tracé_2373" data-name="Tracé 2373" class="cls-22" d="M186,330h0a2.44,2.44,0,0,1-2.6-2.23h0L181,295.86a2.45,2.45,0,0,1,4.89-.37l2.43,31.89A2.46,2.46,0,0,1,186,330Z"/>
              </g>
            </g>
          </g>
        </g>
        <g id="Bubbles">
          <circle id="Ellipse_177" data-name="Ellipse 177" class="cls-23" cx="52.82" cy="28.3" r="19.24"/>
          <circle id="Ellipse_178" data-name="Ellipse 178" class="cls-23" cx="247.83" cy="289.25" r="14.23"/>
          <circle id="Ellipse_179" data-name="Ellipse 179" class="cls-24" cx="215.02" cy="19.84" r="11.17"/>
          <circle id="Ellipse_180" data-name="Ellipse 180" class="cls-24" cx="96.3" cy="197.92" r="10.92"/>
        </g>
      </g>
    </g>
  </g>
</svg>
