<svg xmlns="http://www.w3.org/2000/svg" width="201.011" height="58.409" viewBox="0 0 201.011 58.409">
  <g id="diabetips" transform="translate(103 -1024)">
    <path id="logo" d="M368.692,41.092V63.916a19.872,19.872,0,0,1,21.912-.765l3.33-4.724a5.692,5.692,0,1,1,2.314,1.659l-3.338,4.736a19.906,19.906,0,0,1,3.477,26.741q-.44.621-.928,1.207a25.95,25.95,0,0,0-3.4-51.678H368.692Zm9.188,24.525a4.077,4.077,0,0,0-6.429,3.231,4.061,4.061,0,0,1,1.038-.088,4.09,4.09,0,0,1,3.909,4.081.671.671,0,0,1-.006.105,4.083,4.083,0,0,0,1.488-7.329Zm16.775,11.827a4.079,4.079,0,0,0-6.43,3.231,4.037,4.037,0,0,1,1.038-.088,4.077,4.077,0,0,1,3.909,4.076.667.667,0,0,1-.006.105,4.079,4.079,0,0,0,1.488-7.324Z" transform="translate(-471.692 982.908)" fill="#fff"/>
    <g id="letters" transform="translate(-49.42 1045.298)">
      <path id="path1495" d="M452.3,101.216V81.341h-6.079v19.876Zm-6.6-25.954a3.559,3.559,0,1,0,3.519-3.559A3.559,3.559,0,0,0,445.7,75.262Z" transform="translate(-445.702 -71.703)" fill="#fff"/>
      <path id="path1497" d="M461.115,99.689c0,3.159,2.519,6.038,6.878,6.038a6.271,6.271,0,0,0,5.6-2.8,9.689,9.689,0,0,0,.2,2.24h5.478a19.582,19.582,0,0,1-.24-3.079V92.371c0-4.079-2.359-7.678-8.8-7.678-5.839,0-8.478,3.759-8.718,6.6l5.279,1.08a3.2,3.2,0,0,1,3.4-2.919c1.92,0,2.919,1,2.919,2.16,0,.68-.36,1.2-1.44,1.36l-4.679.719c-3.279.48-5.878,2.48-5.878,6Zm8.358,1.64c-1.68,0-2.359-1-2.359-2.04,0-1.4.959-2,2.24-2.2l3.759-.6v.88c0,3.079-1.84,3.959-3.64,3.959Z" transform="translate(-450.391 -75.655)" fill="#fff"/>
      <path id="path1499" d="M500.151,101.461v-2.24a6.411,6.411,0,0,0,5.6,2.679c5.558,0,9.478-4.359,9.478-10.438,0-5.958-3.479-10.358-9.238-10.358-2.72,0-4.919,1.12-5.759,2.36V72.508h-5.958v28.953Zm9-9.958c0,3.319-2.12,4.959-4.479,4.959s-4.519-1.68-4.519-4.959c0-3.36,2.16-4.919,4.519-4.919S509.15,88.144,509.15,91.5Z" transform="translate(-460.479 -71.948)" fill="#fff"/>
      <path id="path1501" d="M533.941,92.851a3.787,3.787,0,0,1,3.959-3.359c2.88,0,3.919,1.84,4,3.359Zm8.4,5.159a3.838,3.838,0,0,1-4,2.6,4.3,4.3,0,0,1-4.519-3.839h13.837a12.751,12.751,0,0,0,.12-1.879c0-6.4-3.8-10.2-9.958-10.2-5.158,0-9.917,4.079-9.917,10.477a10.121,10.121,0,0,0,10.357,10.6c5.039,0,8.2-2.88,9.158-6.319Z" transform="translate(-470.711 -75.655)" fill="#fff"/>
      <path id="path1503" d="M568.378,77.221h-5.439V79.78a2.92,2.92,0,0,1-3.079,3.239h-1v5.319h3.519v8.517c0,3.96,2.519,6.4,6.638,6.4a7.225,7.225,0,0,0,3.159-.56V97.656a7.487,7.487,0,0,1-1.6.2c-1.32,0-2.2-.44-2.2-2.08V88.338h3.879V83.019h-3.879Z" transform="translate(-480.13 -73.382)" fill="#fff"/>
      <path id="path1505" d="M590.27,101.216V81.341h-6.078v19.876Zm-6.6-25.954a3.559,3.559,0,1,0,3.519-3.559A3.559,3.559,0,0,0,583.672,75.262Z" transform="translate(-487.679 -71.703)" fill="#fff"/>
      <path id="path1507" d="M606.888,112.818v-9.158a6.987,6.987,0,0,0,5.4,2c5.559,0,9.478-4.359,9.478-10.438,0-5.958-3.479-10.358-9.238-10.358-2.839,0-5,1.24-5.839,2.52v-2.04h-5.878v27.474Zm8.917-17.555c0,3.319-2.119,4.959-4.519,4.959-2.359,0-4.479-1.68-4.479-4.959,0-3.319,2.119-4.919,4.479-4.919C613.686,90.344,615.805,91.944,615.805,95.263Z" transform="translate(-492.892 -75.707)" fill="#fff"/>
      <path id="path1509" d="M634.152,99.529c.16,2.2,2.159,6.239,8.4,6.239,5.319,0,7.918-3.319,7.918-6.719,0-2.919-2-5.4-6.119-6.238l-2.639-.52c-.88-.16-1.56-.64-1.56-1.48a1.936,1.936,0,0,1,2.16-1.719,2.611,2.611,0,0,1,2.839,2.439l5.039-.92c-.2-2.32-2.2-5.919-7.958-5.919-4.439,0-7.638,2.959-7.638,6.6,0,2.8,1.68,5.2,5.919,6.118l2.279.52c1.48.32,1.959.92,1.959,1.64,0,.879-.76,1.719-2.319,1.719a2.83,2.83,0,0,1-3.12-2.679Z" transform="translate(-503.037 -75.655)" fill="#fff"/>
    </g>
  </g>
</svg>
